<svg version="1.1" id="Layer_1" xmlns="http://www.w3.org/2000/svg" xmlns:xlink="http://www.w3.org/1999/xlink" x="0px" y="0px"
	 width="100%" viewBox="0 0 1024 1008" enable-background="new 0 0 1024 1008" xml:space="preserve">
<path fill="#000000" opacity="1.000000" stroke="none" 
	d="
M1.000000,703.454102 
	C3.029075,696.197083 3.475406,689.044617 6.981652,682.535950 
	C15.949465,665.889282 38.123646,660.449341 51.719795,671.892578 
	C56.300205,675.747742 58.039787,680.822205 58.045547,686.509521 
	C58.049782,690.693909 56.136890,694.003296 51.731724,694.988708 
	C48.243465,695.768982 44.910759,695.122559 43.082458,691.696350 
	C41.071411,687.927673 41.451237,684.299683 44.831036,681.293335 
	C45.437984,680.753540 45.955139,680.112732 46.760162,679.256531 
	C43.897961,674.190674 38.982754,673.765747 34.256084,673.723022 
	C29.877790,673.683350 26.848011,676.131226 25.347975,680.455322 
	C24.027195,684.262695 23.095404,688.160400 22.828295,692.130615 
	C21.900442,705.921631 21.060940,719.722290 24.057184,733.414734 
	C25.129026,738.312805 26.981703,742.245056 32.684868,742.960327 
	C40.345409,743.921143 45.510017,741.824280 48.475212,736.240112 
	C50.212029,732.969299 51.094067,729.411011 51.676933,725.776794 
	C52.193031,722.558899 53.749802,720.188354 57.296116,721.010620 
	C60.855038,721.835876 60.323784,724.725464 59.727177,727.502686 
	C58.179066,734.709290 56.224834,741.587769 50.202053,746.659485 
	C38.108688,756.843140 16.085138,750.805603 8.546151,737.374390 
	C4.337228,729.875916 2.601649,721.941528 1.143649,713.360962 
	C1.000000,709.969421 1.000000,706.938782 1.000000,703.454102 
z"/>
<path fill="#000000" opacity="1.000000" stroke="none" 
	d="
M446.894440,605.793335 
	C453.309998,604.888184 459.075531,603.369873 464.121094,599.832275 
	C470.856049,595.110229 470.280060,588.138855 462.829956,584.697144 
	C460.875366,583.794189 458.818695,583.049011 456.737885,582.500732 
	C454.698761,581.963379 452.722107,582.136597 451.673584,584.457886 
	C446.859711,595.115417 437.220245,599.039978 426.998291,602.203247 
	C416.934692,605.317505 406.632721,607.129944 396.162537,608.080261 
	C390.445251,608.599121 384.816650,608.244629 379.483490,605.928223 
	C371.208374,602.334045 369.141937,594.463135 374.502930,587.069092 
	C379.610626,580.024414 387.398193,577.378845 395.136902,574.747498 
	C399.840363,573.148193 404.634705,571.816040 409.461609,570.341431 
	C408.662903,568.693298 407.096313,569.114685 405.988098,569.295898 
	C397.559540,570.674561 389.029236,570.084473 380.563324,570.746826 
	C369.696655,571.596924 358.884430,571.404358 348.786011,566.434937 
	C341.768799,562.981750 338.911438,555.763916 340.377472,548.065308 
	C342.778076,535.458862 351.802246,527.686951 360.381195,519.652344 
	C369.026642,511.555389 378.672699,504.686432 388.840546,498.577576 
	C390.216156,497.751099 391.952789,497.216187 392.280365,495.252655 
	C391.884888,493.708527 390.382019,493.495209 389.317444,492.786957 
	C383.619263,488.996002 379.343109,484.105408 376.851929,477.624237 
	C375.618134,474.414246 374.646240,470.824799 371.231079,469.047150 
	C362.529999,464.518127 357.629913,457.232697 355.783600,447.792450 
	C355.057220,444.078308 351.877686,442.238922 349.539093,440.293091 
	C342.234985,434.215912 341.877899,425.925293 341.121033,417.697632 
	C340.870605,414.975372 340.529175,412.501862 338.949310,410.190216 
	C334.220581,403.271149 332.129150,395.421631 334.027802,387.380463 
	C335.740570,380.126495 334.932007,373.247070 333.491638,366.331024 
	C332.219086,360.220795 333.707642,354.792236 336.129608,349.393890 
	C336.878082,347.725616 337.893341,346.138428 337.727386,344.208313 
	C337.080444,336.684540 339.113708,329.736237 341.938782,322.867004 
	C343.292084,319.576416 344.902161,316.649078 347.349457,314.019043 
	C350.386139,310.755554 352.842987,307.196259 354.257629,302.681976 
	C356.104675,296.787781 359.340759,291.460846 365.306091,288.460266 
	C366.448242,287.885803 367.847473,286.896240 368.186859,285.805328 
	C370.116455,279.602631 375.364899,277.337646 380.556915,275.086365 
	C384.092255,273.553436 385.833923,270.106018 388.877533,268.032806 
	C392.396545,265.635803 395.855286,263.524994 400.296997,263.719604 
	C401.287537,263.763000 402.459595,263.883698 403.258057,263.443146 
	C411.812561,258.723236 421.294067,259.500641 430.439575,259.262329 
	C442.087158,258.958832 454.104462,257.622253 464.536407,265.191193 
	C467.001282,266.979553 470.327484,266.484222 473.229492,267.152832 
	C479.687256,268.640625 484.652527,272.687531 488.750397,277.529816 
	C491.722839,281.042175 495.083710,283.791901 498.903198,286.196564 
	C503.865662,289.320770 507.390686,294.005676 511.402161,298.696442 
	C515.023804,295.150604 516.935974,290.728668 520.561340,287.776215 
	C525.689270,283.600159 528.941467,277.008545 536.599609,276.047424 
	C538.249512,275.840363 539.643066,273.607941 541.159180,272.313782 
	C546.607849,267.662781 552.814209,264.581329 559.954163,263.711151 
	C566.498596,262.913513 571.871460,258.764099 578.288452,257.548004 
	C579.652222,257.289551 580.923828,255.559540 581.871948,254.243759 
	C592.373291,239.670380 602.681396,224.956436 613.287048,210.459961 
	C622.802124,197.454208 632.601074,184.655609 642.323486,171.802490 
	C644.888062,168.412033 646.318787,165.420120 645.168579,160.529648 
	C642.954041,151.114014 645.663574,142.785416 654.316589,137.061752 
	C662.319885,131.767853 670.681824,131.010803 678.741516,135.977859 
	C686.945862,141.034180 691.305969,148.681671 690.141418,158.746109 
	C688.927246,169.239304 680.041138,177.784439 669.344177,178.294220 
	C665.407471,178.481842 663.125793,180.087982 660.842224,183.229431 
	C651.065125,196.679398 640.880493,209.832123 630.979126,223.192947 
	C622.866333,234.140137 614.936096,245.222733 606.953003,256.265594 
	C606.395630,257.036530 606.071106,257.975708 605.603149,258.906677 
	C608.707458,261.564178 612.083679,262.783142 615.847961,262.745392 
	C625.128662,262.652313 632.430664,267.088379 638.909668,273.041901 
	C642.208191,276.072968 644.433960,275.992981 647.693726,272.837219 
	C661.090088,259.868042 674.694214,247.111069 688.361145,234.426025 
	C690.496765,232.443817 691.180725,230.280121 690.781067,227.758545 
	C688.559692,213.743973 700.835266,202.636719 714.705872,202.687485 
	C725.645142,202.727539 736.164917,213.156693 736.920105,225.536057 
	C737.493164,234.931381 727.679688,247.905380 718.274597,246.884140 
	C704.949768,245.437302 698.251404,253.995529 690.504150,261.294647 
	C680.827515,270.411591 671.594849,280.008209 661.407410,288.573700 
	C658.533447,290.990112 658.069824,292.930878 660.538574,296.014557 
	C675.942200,315.255493 682.902039,337.661865 685.262451,361.879517 
	C687.291809,382.700592 684.164185,402.661041 676.459778,421.999146 
	C673.757080,428.783051 674.355957,436.310089 670.943176,443.098846 
	C668.475830,448.006775 666.046753,452.908447 661.560974,455.689301 
	C656.437256,458.865692 655.961670,464.437500 653.029297,468.674133 
	C649.566284,473.677399 645.720642,478.162659 640.614319,481.491516 
	C634.595764,485.414978 629.356873,489.886017 625.499207,496.264679 
	C623.146545,500.154938 618.009766,501.586365 613.883362,503.730865 
	C612.855103,504.265228 611.216858,504.373322 610.777100,505.178650 
	C605.667969,514.536255 594.184509,514.448669 587.255371,521.196289 
	C584.469116,523.909546 580.595215,525.581055 576.708557,526.727722 
	C572.358521,528.011169 568.369141,529.767456 565.142212,533.231812 
	C563.756409,534.719543 561.502991,535.805908 559.471069,536.213501 
	C551.220581,537.868164 543.999756,541.982727 536.340149,545.089966 
	C529.367249,547.918762 521.727539,548.989319 514.483459,551.326172 
	C510.307831,552.673157 505.774658,549.726013 501.314423,549.340393 
	C493.248901,548.643127 485.461517,547.292603 479.031036,541.774963 
	C477.426880,540.398560 475.347961,540.364624 473.323212,540.375488 
	C468.640015,540.400574 464.318817,538.862488 460.800934,536.033569 
	C456.320587,532.430664 451.629761,529.723694 445.956451,528.510559 
	C441.140503,527.480835 437.328613,524.801147 433.860107,521.081726 
	C429.166534,516.048584 421.978516,515.451660 415.962799,512.733887 
	C414.374329,512.016235 413.257599,513.535706 412.114014,514.502441 
	C404.239075,521.158997 396.350922,527.799866 388.448364,534.423645 
	C386.414703,536.128174 384.163269,538.528198 381.687256,535.488037 
	C379.563049,532.879822 382.252228,531.242432 383.868561,529.746704 
	C387.764801,526.141235 391.801514,522.687500 395.311462,518.654602 
	C393.075958,517.756836 392.000458,518.886841 390.873291,519.671570 
	C380.315308,527.021851 370.401794,535.109131 362.252045,545.163391 
	C361.005829,546.700806 359.396637,548.307495 360.491882,550.496399 
	C361.525360,552.561890 363.759552,552.754517 365.725647,552.752136 
	C376.554077,552.739258 387.402893,552.983276 398.205261,552.403687 
	C411.024994,551.715759 423.417419,553.296631 435.547058,557.330322 
	C436.489349,557.643616 437.649384,557.915222 438.230682,558.607300 
	C444.760559,566.381653 454.156616,567.458130 463.168335,569.465637 
	C464.137360,569.681580 465.073975,570.056274 466.012604,570.393555 
	C476.141815,574.033081 483.104340,580.789551 483.472076,591.820801 
	C483.809509,601.941711 477.844696,609.099609 468.930664,613.283386 
	C460.329681,617.320251 451.375854,620.329651 441.526428,619.464417 
	C437.406555,619.102539 436.041321,616.914246 435.863922,613.325623 
	C435.682526,609.656677 437.055511,607.200745 441.058502,606.769470 
	C442.875885,606.573669 444.670166,606.163879 446.894440,605.793335 
M449.388489,328.961975 
	C445.823608,320.727509 441.199921,312.978790 437.580566,304.824860 
	C432.961151,294.417969 429.672760,283.412842 425.955322,272.615784 
	C423.729858,266.152130 420.501648,264.327240 413.977753,266.307617 
	C411.185303,267.155273 409.495361,268.744965 410.933319,271.841858 
	C413.821503,278.062012 414.386230,284.958221 416.783905,291.329163 
	C423.168701,308.294556 430.108307,324.907776 438.531097,341.082886 
	C446.221161,355.850739 454.749878,369.983459 463.728302,383.893280 
	C469.313751,392.546631 476.285400,400.216858 482.763275,408.238831 
	C498.542938,427.779785 516.902161,444.532745 536.770142,459.672760 
	C557.064880,475.138031 579.258789,487.479797 602.481201,497.986755 
	C609.001526,500.936890 618.338684,496.243988 620.399231,488.884735 
	C619.723633,488.526520 619.022522,488.118805 618.292175,487.772858 
	C600.002502,479.108582 581.722534,470.472168 564.987915,458.885864 
	C552.943909,450.547089 541.026245,441.984772 529.987183,432.435211 
	C519.701050,423.537018 509.931030,413.946259 500.841492,403.736633 
	C491.539886,393.288788 482.608704,382.464111 474.723633,370.990692 
	C465.615295,357.737305 457.014008,344.048859 449.388489,328.961975 
M501.616394,484.880066 
	C506.480743,488.367615 511.229523,492.031586 516.231567,495.308990 
	C530.151855,504.429840 544.734375,512.343384 559.481689,520.085022 
	C567.390747,524.236877 575.679993,522.029724 584.321716,514.601440 
	C580.792358,513.131714 577.489685,511.642395 574.106445,510.367096 
	C558.916809,504.641449 544.592651,496.812714 531.349304,487.864655 
	C518.604919,479.253632 505.809387,470.375153 494.377747,459.662720 
	C484.434113,450.344757 474.439880,441.057129 465.194305,431.106079 
	C448.514191,413.153259 434.128906,393.246429 421.519897,372.331848 
	C412.891296,358.019501 405.527252,342.785919 399.397552,327.098785 
	C394.007202,313.303619 388.903259,299.411499 385.330811,285.009033 
	C384.439484,281.415588 382.707153,280.924591 379.586517,282.935364 
	C375.141754,285.799347 373.222809,289.560516 374.294342,294.768250 
	C375.968384,302.904144 377.495697,311.071350 379.882111,319.046509 
	C387.513855,344.550903 399.106232,368.101288 413.614502,390.427460 
	C425.789215,409.162689 439.642792,426.399139 454.885803,442.672760 
	C469.138885,457.889435 484.786652,471.489014 501.616394,484.880066 
M422.831451,359.714508 
	C431.093475,373.932190 439.578461,387.992828 449.438782,401.200775 
	C460.591248,416.139557 472.664276,430.269470 486.107849,443.161499 
	C494.245209,450.965027 502.852142,458.263885 511.524689,465.509277 
	C519.619080,472.271698 528.444763,477.729736 536.893677,483.835693 
	C551.323730,494.264160 567.963379,500.408295 583.853943,507.997681 
	C591.062561,511.440460 597.318970,510.302582 601.218323,505.087860 
	C600.660767,503.514923 599.228271,502.903046 597.885742,502.318604 
	C571.811646,490.967621 547.624451,476.437256 525.294006,458.868866 
	C509.974060,446.815979 495.915344,433.378448 482.822968,418.926239 
	C473.302582,408.417023 464.712280,397.158905 456.685059,385.519012 
	C449.361908,374.900085 442.156647,364.106689 436.030365,352.778564 
	C427.965546,337.865875 420.752472,322.414124 414.953705,306.490601 
	C411.032257,295.722321 406.094971,285.165375 404.460602,273.617859 
	C404.243622,272.084839 403.415771,270.844360 401.813416,270.263611 
	C397.394012,268.661835 390.797119,273.763885 391.274170,278.518890 
	C391.758209,283.343048 393.643005,287.829102 394.813202,292.481415 
	C400.745117,316.065094 410.740662,337.924866 422.831451,359.714508 
M373.424194,359.135071 
	C376.658752,366.026642 379.718231,373.006866 383.157196,379.794891 
	C401.107971,415.227173 426.264435,445.129639 454.866119,472.285583 
	C466.826843,483.641754 480.168060,493.349640 493.458923,503.110229 
	C508.962097,514.495483 526.183594,522.767334 543.137329,531.556580 
	C547.381348,533.756775 557.373840,531.496521 560.874939,527.491638 
	C549.077393,521.755920 537.443359,515.854431 526.287048,508.954773 
	C503.200989,494.677155 481.706604,478.413574 462.202118,459.544006 
	C452.297791,449.962036 442.574127,440.180237 433.869110,429.480164 
	C416.399902,408.007324 400.421417,385.586456 388.647369,360.322937 
	C380.177612,342.149414 373.304993,323.519623 369.091309,303.911407 
	C368.556152,301.421112 369.236115,298.486389 366.521667,296.321136 
	C361.575378,299.830292 359.622223,304.612488 360.307678,310.461090 
	C362.253479,327.063354 367.588348,342.770905 373.424194,359.135071 
M604.202637,287.838531 
	C605.368713,282.671265 606.587036,277.515076 607.684204,272.333252 
	C608.549683,268.246033 606.772583,266.112244 602.651917,265.443726 
	C595.681824,264.312958 591.988647,265.404022 591.722717,269.805450 
	C591.345703,276.046570 589.110535,281.769684 587.948547,287.761719 
	C584.598694,305.036316 578.023254,321.265259 570.953491,337.130219 
	C562.162537,356.857819 551.395813,375.671539 537.582214,392.477142 
	C534.171753,396.626343 531.857117,401.592255 527.057373,404.800262 
	C524.205322,406.706543 520.561401,410.029205 520.838501,413.341187 
	C521.177429,417.393005 525.391724,420.125793 528.990845,422.128021 
	C531.803711,423.692810 534.159424,421.461670 535.856567,419.423767 
	C542.340210,411.638214 549.188599,404.082642 554.940552,395.776184 
	C568.948975,375.546539 581.619873,354.555054 590.372559,331.345734 
	C595.660828,317.322937 600.330505,303.156891 604.202637,287.838531 
M580.309570,290.884399 
	C581.911133,283.637390 583.492554,276.385803 585.130432,269.147034 
	C585.481567,267.595245 585.634460,266.273682 584.108948,265.162231 
	C579.611938,261.885864 568.224548,266.191864 567.211060,271.624084 
	C562.853821,294.980438 555.348083,317.264526 544.461731,338.392548 
	C536.715881,353.425598 528.893799,368.408325 517.458679,381.121643 
	C514.121765,384.831512 510.999878,388.734253 507.757935,392.530273 
	C503.120514,397.960297 504.972565,398.359039 511.500397,405.425690 
	C515.345886,409.588562 517.856567,405.905182 519.908142,403.444214 
	C530.109558,391.207092 540.138367,378.806274 548.564636,365.247711 
	C562.805908,342.332214 573.093750,317.692383 580.309570,290.884399 
M650.730103,409.765900 
	C647.879333,378.502563 643.292053,347.592651 633.044861,317.582642 
	C631.152893,318.451508 631.236206,319.366913 630.978333,320.127655 
	C628.684570,326.893738 627.120544,334.048096 623.831177,340.292419 
	C621.059021,345.554779 620.792786,350.004578 623.576355,354.814270 
	C625.050171,357.360687 625.599854,360.082367 626.110046,362.854095 
	C627.583984,370.861267 628.751770,378.932220 630.463501,386.886963 
	C636.546692,415.155914 638.671021,443.675171 636.419128,472.513794 
	C636.345947,473.450531 636.094238,474.569244 638.091736,475.491364 
	C644.184265,469.268311 650.552063,462.887115 650.768616,453.205017 
	C651.085144,439.049988 650.797546,424.881470 650.730103,409.765900 
M553.403748,408.872894 
	C550.220886,412.495514 547.032349,416.113098 543.856445,419.741821 
	C535.791687,428.956360 535.793945,428.958344 545.559082,436.783539 
	C551.213074,441.314362 551.221558,441.322418 556.305847,435.955109 
	C575.725037,415.454742 591.455383,392.367706 604.258484,367.258392 
	C609.543213,356.894043 614.340271,346.291565 618.644470,335.480530 
	C619.558594,333.184448 621.240723,330.900757 619.858032,326.593597 
	C606.633972,343.419525 587.525635,352.802277 578.079468,372.444427 
	C571.906372,385.280731 562.963745,397.042664 553.403748,408.872894 
M507.282837,383.780884 
	C534.223877,350.449097 552.302307,312.908936 560.809143,270.845123 
	C553.697449,269.149902 544.752869,275.184998 541.676331,283.829773 
	C537.244873,296.281799 533.230774,308.807617 527.045349,320.668976 
	C517.021851,339.890411 505.980164,358.355682 492.493469,375.323914 
	C490.319000,378.059753 489.969025,380.297699 492.152435,383.315033 
	C498.869049,392.596954 499.116791,392.696533 507.282837,383.780884 
M660.750549,329.614532 
	C658.299316,319.370148 656.221069,309.009094 651.796570,299.065582 
	C648.151428,300.451477 646.318420,303.202026 643.962769,305.189423 
	C637.863464,310.335083 637.849609,310.744232 640.482300,318.346680 
	C646.589417,335.981995 650.711060,354.192261 653.922241,372.464966 
	C657.986450,395.591187 659.005493,419.101288 658.252502,442.629608 
	C658.197632,444.344513 657.606201,446.266541 659.392639,448.185120 
	C661.763733,445.947693 663.430298,443.522095 664.603149,440.495239 
	C667.978638,431.784088 669.044067,422.751373 668.776917,413.524628 
	C668.369141,399.438934 668.922241,385.419861 666.974609,371.257874 
	C665.100281,357.628357 664.002319,343.893707 660.750549,329.614532 
M629.820435,466.325104 
	C632.657166,429.481812 624.977234,393.928009 617.281372,357.350494 
	C612.432251,363.740234 611.499695,370.720734 607.383057,376.011627 
	C605.019165,379.049713 604.795593,382.430115 605.563599,385.970001 
	C609.092468,402.235779 612.341003,418.566803 613.715088,435.165070 
	C614.687195,446.907410 616.346252,458.669495 615.554871,470.474304 
	C614.926880,479.843201 615.313721,480.528992 624.601624,483.001648 
	C628.180176,483.954346 629.276306,482.548279 629.677551,479.672668 
	C630.253601,475.543396 630.421509,471.381317 629.820435,466.325104 
M486.154205,300.601196 
	C482.106812,316.388489 478.894196,332.345947 476.412903,348.451813 
	C475.958099,351.404053 475.276001,354.354858 475.185852,357.321136 
	C475.072754,361.040894 482.639465,371.686920 485.347504,372.128204 
	C487.998535,372.560211 493.694550,365.156281 494.518738,359.455719 
	C496.930847,342.771729 501.086395,326.548096 506.821228,310.717926 
	C507.880951,307.792725 507.445099,305.118988 505.831024,302.637695 
	C502.722229,297.858673 499.005157,293.697144 494.112244,290.563629 
	C490.955017,288.541687 489.263611,289.079071 488.318756,292.619629 
	C487.677979,295.020752 486.959412,297.401154 486.154205,300.601196 
M601.751282,399.734283 
	C601.531189,396.814331 601.259155,393.914886 598.568970,391.392365 
	C594.653687,397.373627 590.924500,403.019501 587.258606,408.706238 
	C586.326965,410.151489 586.161560,411.807129 586.445312,413.518188 
	C589.083496,429.427917 591.275574,445.387878 592.185059,461.509155 
	C592.318848,463.880219 592.436340,467.401428 593.884949,468.333618 
	C598.235718,471.133331 602.608459,474.309998 608.364258,475.411865 
	C608.364258,468.193573 608.629944,461.324677 608.312744,454.482788 
	C607.472961,436.370789 604.368042,418.515015 601.751282,399.734283 
M372.816254,424.942566 
	C364.765900,422.687317 357.064728,419.166840 348.725403,417.713104 
	C347.160522,427.849548 354.002380,438.289124 363.009369,441.074921 
	C378.716949,445.933167 394.737396,448.299957 411.151428,447.989532 
	C414.499207,447.926270 417.926025,449.527435 421.548706,447.763702 
	C417.545380,442.711121 413.787292,437.887817 409.927155,433.147644 
	C408.845825,431.819763 407.223206,431.254852 405.515411,431.036652 
	C394.773590,429.664459 384.185883,427.468353 372.816254,424.942566 
M397.684540,416.788239 
	C395.162598,412.886871 392.617462,409.000244 390.126129,405.079437 
	C388.184906,402.024475 385.672089,400.002289 382.063660,398.903076 
	C370.763702,395.460907 359.826782,391.060303 349.273499,385.706879 
	C347.017609,384.562531 344.700348,382.952087 341.521881,383.907135 
	C341.213074,386.880768 340.687103,389.827667 340.643372,392.781708 
	C340.532471,400.275360 345.833282,408.756134 352.351288,411.202698 
	C360.742981,414.352509 369.121979,417.611450 377.953979,419.392853 
	C385.344757,420.883545 392.625977,423.168549 400.326447,423.027252 
	C400.812073,420.369720 398.932709,419.087494 397.684540,416.788239 
M471.003448,339.597473 
	C473.955322,322.925964 477.668091,306.421936 482.110565,290.088074 
	C484.103424,282.760986 479.830078,275.367340 472.352386,273.542511 
	C469.426636,272.828522 467.569458,273.621765 466.694489,276.670868 
	C462.818268,290.178436 459.918518,303.900757 456.922791,317.625763 
	C454.024017,330.906647 463.614014,338.386383 467.822266,348.373718 
	C468.362762,348.274261 468.903259,348.174805 469.443756,348.075378 
	C469.936646,345.531616 470.429535,342.987854 471.003448,339.597473 
M689.818481,253.328827 
	C692.098267,251.140884 694.448242,249.020294 696.633484,246.741669 
	C698.127625,245.183640 699.765930,243.553833 697.311768,241.295914 
	C695.182129,239.336655 693.374756,238.608871 690.907166,240.926193 
	C675.432190,255.458344 659.853088,269.879486 644.356445,284.388672 
	C637.329163,290.968170 630.656372,297.952637 623.645874,304.501099 
	C616.007629,311.636017 608.082520,318.506592 600.663574,325.887360 
	C596.369080,330.159698 596.208313,336.431305 593.676819,341.689728 
	C626.711487,313.418549 657.094421,282.624390 689.818481,253.328827 
M373.109955,450.765320 
	C370.062958,449.725403 367.047150,448.123688 363.794434,449.979218 
	C363.765900,452.021606 364.582062,453.619751 365.639557,454.767883 
	C372.193176,461.883057 379.094391,468.479095 389.685699,468.738831 
	C392.504791,468.807922 395.313965,469.228790 398.130920,469.446594 
	C411.093262,470.448914 423.951813,469.673553 436.756073,467.620361 
	C436.079651,461.345093 430.485046,454.965332 425.531921,455.145752 
	C408.156860,455.778534 391.062195,453.314056 373.109955,450.765320 
M404.632233,563.116760 
	C415.200562,562.037292 425.178833,567.360229 436.833374,566.757874 
	C434.315399,563.865662 432.158356,562.880249 429.784332,562.138855 
	C416.622589,558.028687 403.159058,558.916687 389.702148,559.644531 
	C380.070587,560.165466 370.373688,561.141113 360.879974,558.879517 
	C352.149139,556.799561 350.337036,551.758301 354.888489,544.092102 
	C359.491821,536.338501 366.539001,530.978394 373.212555,525.273438 
	C382.345581,517.466003 392.548218,511.228271 403.053589,505.467529 
	C404.528168,504.658966 406.239380,504.021393 405.137360,501.763885 
	C404.230438,499.905975 402.736359,498.821716 400.724304,499.322418 
	C398.987030,499.754791 397.306854,500.593079 395.739166,501.492065 
	C392.856781,503.144989 389.966248,504.822021 387.270782,506.756165 
	C373.754364,516.454956 360.146393,526.069641 350.776764,540.291870 
	C343.669922,551.079346 347.049744,561.999878 360.897736,563.837585 
	C375.258118,565.743286 389.453308,563.734863 404.632233,563.116760 
M612.681030,236.218201 
	C619.994385,226.364853 627.331421,216.528915 634.614258,206.653015 
	C641.214600,197.702484 647.667603,188.641449 654.382935,179.778687 
	C656.158813,177.434906 656.440002,176.104263 653.907410,174.122849 
	C651.420288,172.177094 649.928101,172.504181 648.209656,174.897781 
	C645.591309,178.544586 644.024719,183.162674 641.013977,186.154556 
	C632.773743,194.343399 627.367615,204.547821 620.217041,213.489731 
	C609.542969,226.837875 599.741333,240.883682 589.566833,254.631393 
	C588.611450,255.922318 587.118652,257.019775 588.157349,259.306732 
	C592.462952,260.250366 596.145813,259.255615 598.889587,255.433609 
	C603.347961,249.223175 607.791077,243.001709 612.681030,236.218201 
M701.946777,214.448029 
	C701.338806,215.237167 700.675354,215.990021 700.131531,216.821167 
	C695.697510,223.598190 697.242920,232.554611 704.085999,238.196320 
	C710.411560,243.411362 716.932678,242.504837 723.513672,237.481705 
	C730.710083,231.988876 731.148560,221.536774 725.426392,214.833694 
	C720.591675,209.170166 708.913940,206.810577 701.946777,214.448029 
M670.766602,140.401901 
	C669.108093,140.330826 667.442078,140.122986 665.792358,140.212830 
	C659.368896,140.562515 654.457275,144.942398 652.151672,152.249191 
	C650.299683,158.118286 652.538696,164.682373 657.727295,168.595398 
	C662.686279,172.335236 670.073120,172.861313 675.098938,169.656662 
	C680.431885,166.256210 683.308716,161.280624 682.799133,154.966965 
	C682.228394,147.896362 678.487244,142.903305 670.766602,140.401901 
M340.608154,367.460205 
	C341.280701,369.356323 342.400818,370.916168 343.668854,372.508667 
	C350.256195,380.781525 360.167633,383.361725 369.129303,387.473022 
	C372.823059,389.167542 376.723389,390.906586 381.254639,391.143158 
	C379.391876,387.480194 377.602264,384.312103 376.132263,381.002106 
	C372.310730,372.397034 368.085602,364.307251 357.843811,361.742432 
	C355.975403,361.274536 354.289368,359.954468 352.608826,358.886658 
	C349.298370,356.783112 345.536652,352.927094 342.069000,355.035797 
	C338.288666,357.334717 340.067841,362.586029 340.608154,367.460205 
M447.468506,309.851349 
	C448.418243,311.073883 448.362579,313.098480 450.672516,313.661560 
	C453.754150,300.183655 456.019135,286.600433 460.506744,273.579285 
	C460.955597,272.276825 460.764923,271.001587 459.767639,269.865356 
	C456.924835,266.626526 445.634186,264.027100 441.896759,265.906464 
	C441.064392,266.325012 440.151459,267.081116 439.812744,267.903168 
	C437.479065,273.566223 437.996277,279.863342 438.622162,285.398743 
	C439.559174,293.686005 443.750549,301.446228 447.468506,309.851349 
M423.742035,475.351013 
	C410.192169,476.780579 396.705414,475.395721 383.029419,473.873169 
	C386.248932,484.078888 396.537018,492.263123 406.331543,492.836609 
	C418.681915,493.559692 430.898346,486.095978 436.091339,474.296722 
	C432.121429,474.651550 428.389343,474.985107 423.742035,475.351013 
M455.186829,496.514984 
	C456.151703,504.270294 457.808197,512.018494 457.887634,519.782898 
	C457.967712,527.605286 463.046173,530.484558 468.604614,533.150330 
	C472.994812,535.255798 474.882355,533.904968 474.717712,529.090820 
	C474.331787,517.807068 472.836273,506.631042 470.720001,495.551941 
	C470.030914,491.944458 466.964233,490.026031 463.760925,490.333160 
	C460.359772,490.659210 455.698059,490.278534 455.186829,496.514984 
M486.947174,505.564819 
	C484.338135,503.903107 481.729126,502.241425 479.037628,500.527222 
	C478.100494,501.957672 478.506653,503.109619 478.558624,504.238098 
	C478.911072,511.885864 481.120575,519.310242 481.206024,526.998169 
	C481.310028,536.353149 485.285950,540.962708 494.404266,542.594604 
	C497.247864,543.103516 499.076813,542.224976 498.881104,539.044983 
	C498.595703,534.407532 497.998535,529.785339 497.827576,525.145752 
	C497.528259,517.022949 496.098175,509.616882 486.947174,505.564819 
M412.372009,595.024353 
	C406.970367,596.011414 401.593140,597.179382 396.157318,597.913086 
	C393.223053,598.309082 390.161804,598.201416 387.208191,597.870972 
	C385.038849,597.628296 382.914948,596.505188 382.423309,594.070007 
	C381.928986,591.621460 383.551636,590.006409 385.402496,588.745544 
	C386.497162,587.999878 387.695740,587.366699 388.920288,586.857788 
	C407.238678,579.245300 426.215485,574.220703 446.149109,575.229004 
	C457.255524,575.790833 469.124176,576.303162 475.763275,589.332520 
	C476.029846,584.929443 474.265228,582.552612 471.881165,580.726746 
	C467.750671,577.563232 463.188873,575.126831 457.980896,574.238953 
	C444.546021,571.948547 431.023376,572.628845 417.744476,574.729736 
	C406.462952,576.514526 395.378632,579.896179 385.467865,585.989380 
	C381.636444,588.344971 377.321228,591.147278 378.958710,596.555542 
	C380.516846,601.701782 385.630646,601.221863 389.833496,601.698975 
	C397.071716,602.520630 404.083801,600.568665 411.141846,599.577209 
	C421.628326,598.104248 431.527374,594.637817 440.353638,588.640503 
	C442.658997,587.074036 445.345917,585.342224 444.695587,579.892578 
	C435.294617,588.909424 424.262787,591.937195 412.372009,595.024353 
M631.893738,274.731873 
	C627.669800,272.847351 623.486511,270.870117 618.970520,269.724609 
	C615.997559,268.970551 614.548584,270.146637 614.268250,273.098053 
	C613.986755,276.061096 613.637146,278.958344 612.778931,281.887939 
	C610.000793,291.371216 607.640869,300.977051 604.826843,311.646729 
	C606.726685,310.517029 607.635681,310.148163 608.331299,309.536591 
	C616.177307,302.638367 623.184021,294.864258 631.110168,288.016113 
	C634.875427,284.762909 635.034546,279.843170 631.893738,274.731873 
M581.791931,425.906586 
	C581.501038,423.706085 581.785767,421.290253 579.263306,419.308868 
	C574.752380,424.851105 570.338135,430.177368 566.072449,435.620117 
	C565.430481,436.439270 565.304260,437.792694 565.241638,438.915802 
	C564.586609,450.662872 571.785156,459.600525 585.037842,462.380524 
	C583.949890,450.300140 582.890259,438.534729 581.791931,425.906586 
M531.814941,292.434418 
	C532.379761,290.448792 534.242004,288.784546 533.358948,286.284485 
	C529.197388,287.994232 525.822510,290.547089 523.125427,294.003754 
	C511.060608,309.466278 508.152069,328.277466 503.930450,346.721741 
	C508.301971,341.085297 512.020630,335.117462 515.546204,329.037598 
	C522.152954,317.644257 526.836060,305.379242 531.814941,292.434418 
M362.774048,349.608826 
	C358.567139,339.700226 356.750916,329.096710 354.433624,318.360748 
	C348.173248,323.033325 343.624298,338.224670 346.148468,344.510895 
	C346.456299,345.277557 346.752197,346.122253 347.293152,346.710541 
	C352.091217,351.928589 358.386414,354.564301 365.659149,357.920929 
	C364.446991,354.583191 363.680267,352.471954 362.774048,349.608826 
M443.600677,520.884033 
	C445.609680,521.973206 447.521301,523.749451 449.998932,522.807861 
	C451.410797,522.271240 451.361511,520.690063 451.206482,519.310425 
	C450.372131,511.884735 449.525696,504.460297 448.737000,497.029755 
	C448.515564,494.943420 447.353088,493.937744 445.413666,494.280579 
	C441.989960,494.885895 438.588989,495.663025 435.225708,496.547699 
	C433.727325,496.941864 433.293213,498.351410 433.485321,499.770996 
	C434.550232,507.639984 435.069305,515.778320 443.600677,520.884033 
M504.705444,529.004883 
	C504.900024,532.474731 505.049957,535.947754 505.300934,539.413513 
	C505.592316,543.437195 508.372101,544.618591 511.817200,544.749939 
	C515.290100,544.882446 519.586243,545.366089 520.542114,541.068909 
	C521.613953,536.250549 521.607056,530.208496 518.618225,526.761719 
	C515.133057,522.742615 509.760345,519.813538 503.469635,517.812805 
	C503.914917,521.971436 504.244080,525.045532 504.705444,529.004883 
M675.457397,344.085205 
	C673.002197,336.365204 671.431763,328.303680 666.802612,321.362732 
	C671.913086,345.258453 675.946289,369.221283 676.421204,393.685028 
	C679.668335,377.328247 678.942505,361.079468 675.457397,344.085205 
M399.260101,589.028809 
	C398.659149,589.434998 397.642151,589.529724 398.123901,591.078308 
	C408.716583,589.995117 418.956635,587.559387 428.648926,582.929321 
	C418.523682,582.341248 409.409882,586.603333 399.260101,589.028809 
M529.595154,540.423645 
	C532.528076,539.394409 536.273438,540.214172 538.541565,536.364563 
	C535.001404,533.654724 530.571228,533.829346 526.107788,530.638062 
	C527.542847,534.875549 525.290222,538.348389 529.595154,540.423645 
M455.823975,481.391052 
	C451.615082,479.705750 449.113312,481.125763 443.935089,488.335754 
	C448.128906,488.508850 451.751892,487.140076 455.469604,486.130951 
	C458.942932,485.188202 458.422211,483.743622 455.823975,481.391052 
M469.686066,605.450928 
	C470.636383,604.544067 472.026642,603.919067 472.226013,601.518005 
	C465.343872,608.136475 456.857361,609.503296 449.123169,612.541199 
	C456.355286,611.939697 463.038239,609.750183 469.686066,605.450928 
M423.879303,509.677155 
	C425.238464,510.220764 426.760742,511.253113 427.850494,509.498932 
	C429.229187,507.279816 428.563171,505.126831 427.171173,503.118896 
	C421.796814,505.538635 421.236511,506.464844 423.879303,509.677155 
M443.974274,479.433502 
	C445.093536,478.046875 447.070953,477.191864 447.257172,474.173340 
	C443.924957,476.683014 441.341614,478.682709 439.228210,482.955170 
	C441.365021,481.397461 442.425903,480.624054 443.974274,479.433502 
z"/>
<path fill="#000000" opacity="1.000000" stroke="none" 
	d="
M118.987869,737.687500 
	C116.254166,730.470459 113.154327,723.861328 108.500381,717.884277 
	C107.110596,725.501831 106.444176,732.954224 108.227058,740.420837 
	C108.561668,741.822144 109.981491,742.342712 111.074623,743.087830 
	C112.598015,744.126282 113.307549,745.583374 112.917366,747.393311 
	C112.506462,749.299194 111.029640,750.188904 109.251129,750.207092 
	C101.924133,750.282227 94.595390,750.278870 87.268433,750.198975 
	C85.508087,750.179810 84.007210,749.357727 83.531372,747.454590 
	C83.062912,745.580994 83.889519,744.144897 85.455452,743.238037 
	C88.505371,741.471802 88.910530,738.714478 88.896523,735.528076 
	C88.818886,717.869873 88.830917,700.211060 88.867752,682.552612 
	C88.874611,679.263000 88.274368,676.513245 85.600960,674.089172 
	C82.512260,671.288574 83.258041,667.724060 87.047867,667.563110 
	C100.918129,666.974060 114.984520,664.471497 128.554672,669.554016 
	C147.305099,676.576721 145.194717,706.037354 132.231766,712.519775 
	C129.258743,714.006470 128.600449,716.036560 130.061722,719.033752 
	C133.122604,725.311707 136.091995,731.635315 139.018661,737.977234 
	C140.260056,740.667297 142.790390,741.583191 145.107315,742.864441 
	C146.966858,743.892822 148.441238,745.327209 147.768875,747.662231 
	C147.176270,749.720276 145.405197,750.294983 143.422226,750.296387 
	C136.592438,750.301392 129.761932,750.366577 122.933167,750.284973 
	C119.108932,750.239319 117.668831,748.037048 119.213654,744.673340 
	C120.326256,742.250854 120.164139,740.233459 118.987869,737.687500 
M107.285782,696.466553 
	C107.285492,698.461731 107.162247,700.466492 107.316246,702.449707 
	C107.505661,704.889099 106.204453,708.326599 110.249184,708.745422 
	C113.955841,709.129211 118.461258,710.223694 120.404663,705.728943 
	C124.336189,696.636047 124.294098,687.164368 120.462387,678.124329 
	C118.713890,673.999207 114.119095,674.494873 110.270447,675.090149 
	C106.690086,675.644043 107.369431,678.625122 107.326614,681.013855 
	C107.240219,685.833984 107.291794,690.656555 107.285782,696.466553 
z"/>
<path fill="#000000" opacity="1.000000" stroke="none" 
	d="
M525.256592,749.723511 
	C514.034302,750.845947 503.215607,750.229553 492.406250,750.270935 
	C490.517334,750.278137 488.640656,749.990295 487.950989,747.846863 
	C487.304352,745.836975 488.144012,744.185669 489.784485,743.085205 
	C492.477356,741.278625 492.994080,738.735352 492.980621,735.719604 
	C492.904053,718.578003 492.912292,701.435791 492.941681,684.293945 
	C492.948669,680.211548 492.530029,676.558044 489.207855,673.412842 
	C486.479370,670.829773 487.863708,667.220215 491.791840,667.106079 
	C504.896454,666.725708 518.270874,664.963013 530.966614,669.074402 
	C539.571838,671.861084 546.285889,678.194885 549.318604,686.976746 
	C555.778015,705.680908 555.796143,723.852051 542.899719,740.352966 
	C538.508362,745.971619 532.223083,748.015686 525.256592,749.723511 
M526.120117,739.696960 
	C527.208679,738.030090 528.778625,736.503235 529.310730,734.674438 
	C534.258972,717.667603 534.678284,700.609009 529.176697,683.626160 
	C527.139099,677.336304 523.956360,675.309570 517.337830,674.943604 
	C512.883972,674.697327 511.103912,676.215759 511.154419,680.910278 
	C511.347778,698.897766 511.184113,716.888916 511.213837,734.878601 
	C511.226471,742.510620 514.794373,744.842346 522.023865,742.028442 
	C523.256775,741.548584 524.390503,740.813843 526.120117,739.696960 
z"/>
<path fill="#000000" opacity="1.000000" stroke="none" 
	d="
M800.236938,740.710632 
	C792.801514,731.250854 790.140381,720.529358 790.228577,709.164734 
	C790.289062,701.377625 791.378357,693.731995 794.430847,686.278564 
	C801.361145,669.356506 817.442566,661.805908 834.658691,668.025574 
	C841.785217,670.600281 847.386658,678.779236 847.015137,686.310852 
	C846.801086,690.650879 845.049561,694.161438 840.467163,695.242432 
	C836.767395,696.115295 833.792969,694.219971 831.949280,691.328064 
	C829.542236,687.552429 830.875671,683.991089 833.908813,681.002686 
	C834.615967,680.306030 835.488403,679.745483 835.493835,677.949829 
	C831.447021,674.803467 826.827637,672.761108 821.185059,674.012146 
	C815.726868,675.222229 813.933411,679.410522 813.149841,684.261292 
	C810.475586,700.817444 810.362732,717.411987 813.281738,733.920898 
	C814.657288,741.700256 819.405457,744.654419 826.442871,743.375854 
	C829.360718,742.845764 830.915039,741.532227 830.877625,738.452026 
	C830.806885,732.626465 830.772705,726.799133 830.835754,720.973755 
	C830.866211,718.161438 829.191711,716.423279 827.464050,714.572876 
	C826.329590,713.357788 825.334900,711.860168 826.129456,710.063171 
	C826.905884,708.307068 828.587891,707.898987 830.300842,707.877930 
	C835.127319,707.818665 839.958130,707.731445 844.781006,707.871155 
	C848.360901,707.974854 850.089600,709.867859 850.054932,713.648804 
	C849.961853,723.789124 850.129456,733.931580 850.094727,744.072876 
	C850.075439,749.707275 846.899292,751.661560 841.994568,748.866638 
	C839.841431,747.639709 838.195923,747.521545 836.002808,748.573486 
	C822.907349,754.854919 810.471924,752.144653 800.236938,740.710632 
z"/>
<path fill="#000000" opacity="1.000000" stroke="none" 
	d="
M936.302063,668.204102 
	C938.559998,670.677673 937.438477,672.571777 935.703613,674.062378 
	C933.431091,676.014893 933.032593,678.435303 932.941895,681.212769 
	C932.261963,702.020508 931.755615,722.824646 932.884705,743.634827 
	C933.011047,745.964233 933.010986,748.515198 930.441711,749.714478 
	C927.757507,750.967224 925.909119,749.474976 923.841431,747.717285 
	C919.423584,743.961914 917.252380,738.641663 913.801025,734.223083 
	C905.727417,723.887268 898.079346,713.219299 890.244934,702.696289 
	C889.565186,701.783386 888.968018,700.693481 887.534119,700.707581 
	C885.753052,701.582825 886.332581,703.262512 886.329407,704.648987 
	C886.305420,714.980957 886.418945,725.313782 886.324402,735.644836 
	C886.295105,738.840393 886.656494,741.613892 889.738647,743.350159 
	C891.258545,744.206299 891.613098,745.609741 891.184753,747.229492 
	C890.715820,749.002625 889.665222,750.262512 887.738220,750.313660 
	C884.085266,750.410706 880.427734,750.441833 876.774536,750.371582 
	C874.995667,750.337463 873.504883,749.568359 873.018372,747.665466 
	C872.517639,745.706909 872.829346,743.963196 874.884827,743.052856 
	C877.502991,741.893433 877.780579,739.634094 877.787415,737.216492 
	C877.839783,718.719543 877.867004,700.222534 877.961670,681.725830 
	C877.976135,678.900269 877.372070,676.536133 875.013672,674.688049 
	C873.540894,673.533875 872.488464,671.878418 873.085938,669.865479 
	C873.774658,667.545288 875.922363,667.258545 877.891052,666.935059 
	C883.017944,666.092651 886.806274,668.024170 889.920532,672.199158 
	C900.464905,686.334839 911.186707,700.338013 921.845886,714.387878 
	C922.226807,714.890015 922.662659,715.350525 923.387207,716.197998 
	C925.784546,712.378723 924.785522,708.480164 924.526733,704.943359 
	C923.990479,697.614563 924.100769,690.292908 923.960938,682.968689 
	C923.894043,679.466003 923.896179,676.286011 920.818481,673.473328 
	C918.302979,671.174500 919.507324,668.154968 922.813965,667.473755 
	C927.151978,666.580139 931.687195,665.783997 936.302063,668.204102 
z"/>
<path fill="#000000" opacity="1.000000" stroke="none" 
	d="
M608.251404,703.486938 
	C611.875793,702.590820 614.184204,700.489563 616.156128,697.932800 
	C617.648315,695.998047 619.538025,695.213196 621.861206,696.180603 
	C624.212280,697.159607 624.770020,699.218323 624.688904,701.528931 
	C624.537048,705.854919 624.327515,710.178955 624.194885,714.505432 
	C624.135925,716.428467 623.908813,718.284058 621.796265,718.978333 
	C619.723999,719.659485 617.815308,719.192749 616.426453,717.401672 
	C613.638367,713.806030 610.343811,711.577209 605.450745,711.654724 
	C602.519836,711.701233 601.023987,712.505310 600.706970,715.354370 
	C599.819641,723.328674 600.679260,731.313477 600.649963,739.292908 
	C600.642639,741.286926 602.065491,742.688599 604.264465,742.693237 
	C609.259644,742.703735 614.261536,742.777039 619.247498,742.543213 
	C621.821350,742.422546 623.162781,740.262451 624.443970,738.273315 
	C625.519958,736.602539 626.526978,734.873962 627.745911,733.312683 
	C628.740112,732.039185 630.196350,731.645142 631.802551,732.126404 
	C633.631348,732.674133 634.485168,734.051575 634.695496,735.816711 
	C634.811890,736.793030 634.585754,737.804871 634.593994,738.800110 
	C634.690796,750.497070 634.014893,751.083557 622.632568,750.839355 
	C609.653992,750.560974 596.671082,750.486206 583.690247,750.312866 
	C581.225220,750.279907 578.374634,750.776184 577.184875,747.869446 
	C576.058350,745.117371 578.310608,743.624268 580.087952,742.128845 
	C582.587646,740.025635 582.498352,737.005127 582.517883,734.283325 
	C582.640625,717.126892 582.605774,699.968750 582.516174,682.811768 
	C582.498779,679.472473 581.824707,676.398743 579.095093,673.794250 
	C575.949280,670.792603 576.963928,668.234619 581.259521,667.173828 
	C581.741577,667.054749 582.245605,666.966064 582.739990,666.963684 
	C597.892212,666.891418 613.044739,666.862732 628.196655,666.751526 
	C632.882812,666.717102 634.859314,669.147034 634.809448,673.560364 
	C634.779480,676.219360 634.630798,678.878479 634.475464,681.534058 
	C634.370300,683.330566 633.640869,684.779785 631.770813,685.309448 
	C629.923828,685.832642 628.136047,685.197205 627.495300,683.575867 
	C623.117188,672.497375 613.256531,675.395691 604.888855,674.591553 
	C602.529785,674.364868 601.133545,675.769714 601.083923,678.209717 
	C600.952148,684.691833 600.877991,691.175171 600.753296,697.657532 
	C600.657898,702.620117 602.899109,704.716736 608.251404,703.486938 
z"/>
<path fill="#000000" opacity="1.000000" stroke="none" 
	d="
M410.801056,856.188965 
	C412.116821,853.388428 413.239044,850.827209 414.480194,847.994690 
	C405.241241,843.835083 406.347015,834.173828 402.851501,826.984802 
	C400.774384,822.712769 399.169312,818.211182 397.226074,813.507996 
	C394.243927,815.162354 392.933777,817.387024 391.244476,819.700928 
	C395.340607,822.888977 399.257751,825.956970 399.234680,831.704895 
	C399.211121,837.572327 396.710663,842.151978 391.260193,844.269653 
	C381.553680,848.040833 371.324585,846.767944 361.265289,846.736206 
	C358.801239,846.728394 357.790649,844.974915 358.029938,842.189026 
	C359.253571,827.942749 359.546783,813.675781 357.827545,799.442139 
	C357.446075,796.283752 359.508362,795.480225 361.664551,795.425842 
	C370.288666,795.208374 378.943542,795.192444 387.437897,796.953613 
	C392.654724,798.035156 395.936279,801.252441 396.645203,806.781494 
	C396.830566,808.227112 397.373993,809.626953 397.712860,810.897278 
	C402.116486,810.897278 406.242340,810.888245 410.368134,810.900208 
	C413.316162,810.908752 415.075470,812.219788 415.255890,815.331299 
	C415.561401,820.600281 418.643646,824.925598 420.329651,829.989685 
	C422.973511,826.083923 424.503448,821.943542 424.834381,817.367859 
	C424.918091,816.210510 424.636780,814.976807 424.940338,813.895386 
	C425.646545,811.379578 427.597504,810.392578 429.970367,811.172485 
	C432.294403,811.936584 431.948730,813.687988 431.130310,815.657104 
	C428.712341,821.474609 425.492371,827.241760 424.231964,833.185608 
	C422.694092,840.438049 419.748535,847.036499 417.523682,853.942200 
	C415.733673,859.498108 412.106506,863.519836 405.817719,864.081299 
	C401.556335,864.461853 397.924500,863.401672 395.741364,859.241272 
	C394.332397,856.556091 394.710999,853.964355 396.261688,851.681580 
	C397.996063,849.128479 400.853699,849.107605 403.515625,849.738770 
	C406.179199,850.370300 408.590637,851.639832 408.772247,854.888733 
	C408.846191,856.211670 408.245758,857.977661 410.801056,856.188965 
M382.639069,831.550171 
	C382.699860,829.343079 382.319977,827.192139 381.218109,825.295532 
	C380.260986,823.648010 378.721619,822.340210 376.718933,822.826294 
	C374.888153,823.270691 375.111145,825.172424 375.100800,826.618225 
	C375.071014,830.778137 375.143860,834.939148 375.208984,839.099182 
	C375.233124,840.637451 375.348511,842.311890 377.321808,842.503601 
	C379.001129,842.666809 380.133911,841.512573 380.781982,840.083374 
	C381.888092,837.643982 382.520935,835.062073 382.639069,831.550171 
M375.196472,815.580872 
	C376.647644,819.124695 378.677643,817.250183 379.266022,815.477417 
	C380.567474,811.556702 381.307831,807.406128 379.888489,803.244019 
	C379.364746,801.708313 378.537781,800.392212 376.763184,800.619324 
	C374.988678,800.846497 375.127075,802.508728 375.107727,803.789978 
	C375.052582,807.448242 375.103546,811.108154 375.196472,815.580872 
z"/>
<path fill="#000000" opacity="1.000000" stroke="none" 
	d="
M978.973083,713.126343 
	C973.983459,710.658081 969.597534,708.007263 966.285645,703.858276 
	C960.651367,696.799744 959.775085,688.773865 963.023560,680.798950 
	C966.993774,671.052307 975.422913,666.799866 985.512634,665.886719 
	C1000.288208,664.549561 1006.507507,670.341736 1010.723938,679.260315 
	C1012.213074,682.410217 1012.288574,685.648987 1011.350769,688.996277 
	C1010.369324,692.499268 1008.610535,695.171875 1004.631531,695.256470 
	C1000.982361,695.334106 997.460022,694.590576 996.045837,690.646851 
	C994.642639,686.733826 995.083191,683.099731 998.883118,680.515198 
	C999.408325,680.158020 999.852417,679.681458 1000.328430,679.265015 
	C994.015747,671.414734 980.932434,672.368652 976.113159,680.879211 
	C974.041809,684.537109 975.479736,689.292908 979.779602,692.640137 
	C983.510010,695.544128 987.987427,697.021240 992.284729,698.765198 
	C997.228333,700.771423 1002.060852,702.933899 1006.549866,705.833984 
	C1018.015991,713.241516 1020.875366,726.671143 1013.943970,738.575012 
	C1006.273560,751.748230 989.094482,755.005005 974.780640,748.701904 
	C966.354736,744.991455 963.453918,737.604492 960.992432,729.810730 
	C960.195679,727.288025 960.587830,724.521118 963.823853,723.912048 
	C966.832031,723.345886 968.336365,725.350586 969.050842,728.079529 
	C969.849792,731.131104 970.629028,734.262695 972.627991,736.757751 
	C978.301208,743.839111 991.494995,745.419373 998.947021,740.037720 
	C1005.406616,735.372864 1005.032349,727.262146 998.535767,722.686584 
	C992.588440,718.497681 985.593994,716.662476 978.973083,713.126343 
z"/>
<path fill="#000000" opacity="1.000000" stroke="none" 
	d="
M675.696777,667.416077 
	C688.579407,663.698364 699.797852,666.729431 705.625671,675.569397 
	C708.659119,680.170593 710.143250,685.226807 707.473511,690.615662 
	C705.939453,693.712036 703.514465,695.510498 699.875671,695.191040 
	C696.826233,694.923340 694.407349,693.634583 693.237854,690.679565 
	C691.879517,687.247437 692.533447,684.132202 695.119873,681.480591 
	C695.804749,680.778381 696.611145,680.194763 697.583984,679.367615 
	C694.070801,674.042175 688.953918,673.427612 683.553772,674.146606 
	C678.741394,674.787354 674.409485,676.747192 672.659790,681.724365 
	C671.083008,686.209656 672.777710,689.888245 676.591553,692.586548 
	C680.983521,695.693970 686.036743,697.487610 690.922546,699.580750 
	C695.216858,701.420410 699.285767,703.618958 703.368530,705.887390 
	C715.299500,712.516541 717.305298,728.177429 710.343445,739.099060 
	C702.660034,751.152283 686.135010,755.015198 672.205322,748.938293 
	C663.097046,744.964844 660.046936,737.231445 657.422729,728.883728 
	C656.671509,726.493958 657.630798,724.530518 659.946411,723.582886 
	C662.216492,722.653992 663.773132,723.959717 664.918091,725.796753 
	C665.353882,726.495728 665.636780,727.297119 665.937744,728.071960 
	C671.273743,741.810547 675.442871,744.360596 690.084839,742.827148 
	C694.588196,742.355530 698.544067,738.430115 699.932129,733.430786 
	C701.288879,728.544434 699.709106,725.450256 695.467285,722.549988 
	C689.430237,718.422302 682.435364,716.690247 676.056580,713.494263 
	C667.605225,709.259705 660.281433,704.147522 658.552612,693.870300 
	C656.501404,681.676636 662.790710,671.678894 675.696777,667.416077 
z"/>
<path fill="#000000" opacity="1.000000" stroke="none" 
	d="
M297.209015,711.442383 
	C293.984924,711.572571 293.192108,713.319946 293.203430,715.817993 
	C293.235138,722.814636 293.223206,729.811462 293.227631,736.808228 
	C293.229309,739.504944 294.327759,741.638428 296.535706,743.182251 
	C298.103607,744.278687 299.599396,745.516846 298.801483,747.657776 
	C298.072876,749.613037 296.188934,750.240540 294.316681,750.264832 
	C287.491425,750.353760 280.664246,750.317139 273.837921,750.291077 
	C271.872070,750.283569 270.158508,749.623535 269.494659,747.595459 
	C268.823090,745.543701 269.757843,743.914185 271.525665,742.987671 
	C274.539948,741.407898 274.890106,738.836304 274.879456,735.826294 
	C274.816956,718.166870 274.812500,700.506958 274.891815,682.847656 
	C274.907471,679.358582 274.275757,676.535461 271.460480,673.979004 
	C268.184418,671.004150 269.155609,668.383179 273.489960,667.310547 
	C274.764984,666.995056 276.123260,666.907959 277.444183,666.902222 
	C291.604767,666.841125 305.765533,666.786804 319.926178,666.797363 
	C326.113434,666.801941 327.166504,667.927734 327.195404,674.095581 
	C327.205566,676.261292 327.190765,678.427063 327.197388,680.592834 
	C327.203430,682.556702 326.758209,684.299255 324.639709,684.959351 
	C322.435577,685.646057 320.419098,684.947937 319.556549,682.911438 
	C314.890747,671.895508 305.417236,674.550964 296.817078,674.764648 
	C294.107819,674.831970 293.162720,676.556946 293.188446,679.125000 
	C293.248566,685.121765 293.180084,691.119690 293.216217,697.116821 
	C293.253723,703.341248 294.600922,704.490601 300.679016,703.585754 
	C303.424011,703.177124 305.661133,701.984131 307.386688,699.691406 
	C308.958679,697.602783 310.572235,694.912354 313.806335,696.189697 
	C316.983337,697.444458 316.267975,700.555542 316.332886,703.148865 
	C316.416290,706.477844 316.295685,709.813965 316.448059,713.138550 
	C316.560150,715.584961 316.659546,717.986023 313.850922,718.942017 
	C311.193085,719.846680 309.335907,718.303955 307.939941,716.293213 
	C305.409393,712.648254 301.916046,711.220764 297.209015,711.442383 
z"/>
<path fill="#000000" opacity="1.000000" stroke="none" 
	d="
M192.850998,723.700684 
	C190.925323,729.036316 189.296310,734.092346 187.605820,739.127686 
	C186.938553,741.115234 187.831650,742.545227 188.811020,744.190002 
	C190.891876,747.684692 189.747650,749.930542 185.645325,750.249390 
	C182.174652,750.519226 178.662491,750.345032 175.172516,750.240051 
	C173.372955,750.185974 172.015137,749.223694 171.365662,747.487854 
	C170.773682,745.905762 171.029099,744.132874 172.524094,743.548157 
	C181.533447,740.024536 181.783371,731.027466 184.424271,723.907349 
	C190.776581,706.780762 196.270691,689.336365 202.147659,672.032593 
	C203.035110,669.419617 204.366501,666.977051 207.582748,666.993347 
	C210.556931,667.008484 211.776291,669.261230 212.692322,671.724976 
	C218.538223,687.448242 224.410004,703.161865 230.258057,718.884338 
	C232.285126,724.334045 234.353668,729.770813 236.241211,735.269043 
	C237.397217,738.636475 239.442551,740.986816 242.705338,742.409546 
	C244.780182,743.314331 246.605118,744.681030 246.040573,747.313660 
	C245.408951,750.259155 242.981659,750.429016 240.543472,750.408813 
	C233.907059,750.353943 227.270355,750.328186 220.634125,750.257690 
	C216.330307,750.211975 215.758667,747.464355 217.432220,744.571167 
	C219.426498,741.123535 218.689545,738.258545 217.068222,735.191895 
	C216.601913,734.309875 216.139694,733.422119 215.741501,732.508301 
	C214.258896,729.105652 214.621735,723.685791 210.739914,722.839233 
	C205.076996,721.604187 198.916931,721.090088 192.850998,723.700684 
M197.888153,714.396301 
	C201.419022,714.687622 205.005188,715.600037 208.881180,713.492981 
	C207.007217,708.342896 205.212051,703.409363 203.416901,698.475830 
	C202.882156,698.563049 202.347427,698.650330 201.812698,698.737610 
	C199.556198,703.556641 196.805756,708.210999 197.888153,714.396301 
z"/>
<path fill="#000000" opacity="1.000000" stroke="none" 
	d="
M349.928589,672.402832 
	C350.180634,668.089783 352.780518,666.870361 356.079376,666.856079 
	C373.900543,666.779114 391.722076,666.788208 409.543488,666.781555 
	C412.451508,666.780518 414.359772,668.210327 414.758820,671.106262 
	C415.237244,674.578552 415.174530,678.091248 414.559875,681.552124 
	C414.216187,683.487305 413.110138,684.922424 411.066864,685.349426 
	C408.776093,685.828247 407.677643,684.327026 406.913269,682.574951 
	C404.897736,677.955139 401.838989,674.902771 396.447754,674.649536 
	C393.808899,674.525574 392.177612,675.306763 391.987610,678.036499 
	C391.710724,682.014404 391.401459,686.001282 391.395966,689.984802 
	C391.375305,704.953125 391.528687,719.921753 391.481934,734.889893 
	C391.471344,738.275513 392.096649,741.102783 395.085754,743.109497 
	C396.735413,744.216980 397.598267,745.878418 396.850739,747.869873 
	C396.091644,749.892273 394.235382,750.287842 392.330841,750.294373 
	C385.669159,750.317200 379.007111,750.316772 372.345642,750.270325 
	C370.493744,750.257385 368.492157,750.137695 367.839081,747.952576 
	C367.252411,745.989502 368.047699,744.280945 369.741394,743.200867 
	C372.107880,741.691650 372.955505,739.573730 372.950348,736.865601 
	C372.915039,718.377991 372.974396,699.890015 372.853394,681.403137 
	C372.838837,679.178528 373.990082,675.971680 370.353241,675.220215 
	C366.966248,674.520264 363.616882,674.831177 361.187775,677.708679 
	C360.130951,678.960571 359.455597,680.535034 358.610718,681.965210 
	C357.352844,684.094360 355.831207,685.927795 353.032471,684.962158 
	C350.442841,684.068726 349.761414,681.890198 349.845856,679.343323 
	C349.917542,677.180359 349.904755,675.014648 349.928589,672.402832 
z"/>
<path fill="#000000" opacity="1.000000" stroke="none" 
	d="
M450.901337,811.753540 
	C450.907349,807.646606 450.963135,803.965088 449.547516,800.484009 
	C448.436951,797.753052 449.578796,796.146667 452.216736,795.878418 
	C456.008911,795.492798 459.852753,795.262390 463.653748,795.431946 
	C466.527222,795.560059 467.800354,797.882935 468.440247,800.479492 
	C469.989838,806.767700 471.477814,813.072083 473.121338,819.335632 
	C473.554932,820.988098 473.492004,823.045715 475.945160,824.140015 
	C478.041138,816.736694 480.549652,809.563843 481.332428,802.009033 
	C481.856323,796.952698 484.473114,795.008301 489.227814,795.121216 
	C490.890808,795.160706 492.557648,795.023438 494.221222,795.053101 
	C499.851685,795.153259 500.089905,796.315796 499.771057,801.950806 
	C499.160797,812.735840 499.412323,823.570068 499.326019,834.384033 
	C499.310059,836.380554 499.310028,838.382690 499.436035,840.373840 
	C499.819061,846.428223 499.404297,846.932617 493.520020,847.059509 
	C492.188843,847.088196 490.855255,847.082031 489.524475,847.039185 
	C483.596161,846.848450 483.404572,846.366272 483.565033,840.472900 
	C483.792725,832.112488 483.622803,823.741150 483.622803,815.374512 
	C483.157715,815.314148 482.692627,815.253845 482.227539,815.193542 
	C480.864899,821.219360 479.333984,827.214111 478.212097,833.284485 
	C477.668121,836.227905 477.210419,839.156860 476.379730,842.051758 
	C475.324036,845.730957 472.942169,847.089905 469.337341,847.013611 
	C465.752228,846.937744 463.915955,844.927246 463.077362,841.673950 
	C460.556610,831.894653 458.026428,822.117859 455.433289,812.082214 
	C452.389435,813.186157 453.823090,815.950623 452.164551,817.498840 
	C450.390991,816.025757 451.130402,813.960876 450.901337,811.753540 
z"/>
<path fill="#000000" opacity="1.000000" stroke="none" 
	d="
M740.043274,667.642700 
	C747.544189,666.321899 754.701843,666.910278 761.837341,666.997742 
	C763.801147,667.021790 765.954407,667.627380 766.698608,669.850708 
	C767.324158,671.719604 765.984802,673.007080 764.703735,674.085449 
	C761.684753,676.626831 761.404968,680.081482 761.398071,683.624512 
	C761.365479,700.432861 761.414978,717.241577 761.293396,734.049194 
	C761.266541,737.760925 761.966614,740.927124 764.956543,743.385559 
	C766.263428,744.460266 767.390015,745.872620 766.758362,747.712891 
	C766.060852,749.744873 764.194031,750.240662 762.304260,750.257263 
	C755.482422,750.317261 748.659668,750.312500 741.837646,750.271484 
	C740.125488,750.261169 738.361450,749.845825 737.643066,748.115967 
	C736.820374,746.134949 737.873779,744.462341 739.460266,743.388977 
	C742.339233,741.440979 742.806030,738.600098 742.809021,735.510681 
	C742.826477,717.371094 742.811707,699.231445 742.873291,681.091980 
	C742.883118,678.199890 741.667725,676.074829 739.749207,674.036011 
	C737.963562,672.138367 736.534485,669.917114 740.043274,667.642700 
z"/>
<path fill="#000000" opacity="1.000000" stroke="none" 
	d="
M606.078735,836.553589 
	C606.060181,838.369019 606.058716,839.867065 606.138733,841.360901 
	C606.328247,844.901672 604.444458,846.595581 601.134583,846.887634 
	C599.317749,847.047913 597.479370,846.979492 595.650574,846.986023 
	C591.535217,847.000732 589.728821,845.141052 589.806274,840.833862 
	C590.021545,828.862549 589.952576,816.885803 589.962891,804.911255 
	C589.964722,802.751709 589.950684,800.575562 589.700012,798.435608 
	C588.983582,792.318054 589.373169,791.804626 595.393799,791.730713 
	C605.222595,791.609985 605.925354,792.267151 605.985596,801.984619 
	C606.027283,808.713928 605.993652,815.443604 605.993652,823.417236 
	C610.894409,820.593994 614.497925,818.701721 616.143372,814.613770 
	C616.964722,812.573242 618.130188,811.131104 620.349060,810.878723 
	C622.573975,810.625610 625.469666,809.420288 626.584534,812.184631 
	C627.845642,815.311401 624.757141,815.799072 622.698181,816.757507 
	C617.848328,819.015137 617.365479,820.914490 619.415833,825.823486 
	C621.728394,831.360229 626.165222,835.683838 627.890991,841.564209 
	C629.019348,845.409180 627.558533,846.957031 623.997864,847.149536 
	C621.678711,847.274963 619.343750,847.076111 617.016052,847.084045 
	C613.625305,847.095520 611.585938,845.866516 610.548279,842.249390 
	C609.905579,840.009155 609.969299,836.450867 606.078735,836.553589 
z"/>
<path fill="#000000" opacity="1.000000" stroke="none" 
	d="
M637.503113,847.109985 
	C630.728882,844.878906 628.502625,842.250977 628.905823,837.402039 
	C629.283813,832.857605 633.170227,829.156128 638.625732,828.169556 
	C639.441772,828.022095 640.273499,827.961548 641.097839,827.859497 
	C643.127747,827.608154 645.577576,828.426514 646.543457,825.561707 
	C647.508911,822.698181 646.178406,816.767151 644.089661,814.996399 
	C643.362000,816.099365 644.317871,816.881714 644.647034,817.748779 
	C645.971497,821.237549 644.963623,824.002869 641.928711,825.935486 
	C638.931274,827.844299 635.792969,827.522644 633.093445,825.378784 
	C630.185364,823.069275 630.228271,819.934082 631.587097,816.777161 
	C632.394226,814.901855 633.687622,813.222290 635.640320,812.563477 
	C641.688110,810.522949 647.907043,809.704346 654.190491,811.261902 
	C658.650330,812.367432 661.289734,815.369873 661.973999,819.971558 
	C662.486633,823.419373 663.145508,826.856018 662.680420,830.376160 
	C662.252197,833.617737 662.893494,836.561890 664.716309,839.376221 
	C667.100037,843.056885 666.099548,845.655762 661.999695,846.916992 
	C660.582642,847.352905 658.720581,848.135071 657.645203,847.595825 
	C651.070496,844.298645 644.484619,847.197937 637.503113,847.109985 
z"/>
<path fill="#000000" opacity="1.000000" stroke="none" 
	d="
M538.852112,846.186768 
	C533.804138,848.458862 529.698547,846.337769 525.150452,845.233704 
	C521.077271,844.244934 516.803772,848.495789 511.907043,846.848022 
	C507.733307,845.443604 505.517914,842.666077 505.008759,838.577515 
	C504.528137,834.718018 506.449341,831.852051 509.798798,829.985474 
	C511.049713,829.288391 512.392334,828.755798 513.895569,828.053650 
	C507.184998,824.600586 505.823059,822.347778 507.317535,817.550964 
	C508.759216,812.923645 512.756409,810.661865 518.834473,811.365540 
	C521.874146,811.717407 524.493652,809.968079 527.652527,810.400818 
	C533.070801,811.143127 535.929993,814.174988 537.352905,819.027405 
	C538.590576,823.248047 538.108398,827.617798 538.232117,831.933289 
	C538.322388,835.080200 538.191040,838.248779 540.648499,840.822571 
	C542.928406,843.210449 540.985413,844.643738 538.852112,846.186768 
M518.678040,825.730774 
	C518.433838,827.010071 519.010010,827.645874 520.260681,827.524780 
	C521.600220,827.395081 522.286377,826.419312 522.519409,825.219238 
	C523.223145,821.594666 522.152588,818.319092 520.194031,815.105713 
	C520.169922,818.552673 522.193237,822.206970 518.678040,825.730774 
z"/>
<path fill="#000000" opacity="1.000000" stroke="none" 
	d="
M562.408081,837.736816 
	C562.192383,847.336792 562.121704,847.326538 552.611206,847.156982 
	C548.187500,847.078125 546.209045,845.924744 546.439453,840.681274 
	C547.095886,825.745239 547.466064,810.772949 546.390015,795.821045 
	C546.333557,795.036560 546.245117,793.846375 546.686523,793.498413 
	C550.342102,790.616882 554.637146,791.770935 558.642456,792.177185 
	C561.632324,792.480652 562.228210,795.171326 562.235413,797.895081 
	C562.270020,811.040222 562.351135,824.185120 562.408081,837.736816 
z"/>
<path fill="#000000" opacity="1.000000" stroke="none" 
	d="
M568.009399,842.443726 
	C568.254456,833.288330 569.384705,824.530945 568.227966,815.750671 
	C568.107788,814.838379 568.255920,813.580383 568.809204,812.941101 
	C571.981323,809.275330 576.231628,811.067444 580.039795,811.141663 
	C582.938782,811.198059 583.755615,813.730347 583.808594,816.171875 
	C584.002808,825.125244 584.064331,834.081604 584.141541,843.037109 
	C584.147034,843.676331 584.083313,844.505554 583.700562,844.928711 
	C580.653320,848.297546 576.569153,846.856018 572.906799,846.931824 
	C570.468689,846.982361 567.703308,846.476135 568.009399,842.443726 
z"/>
<path fill="#000000" opacity="1.000000" stroke="none" 
	d="
M571.708862,794.638428 
	C577.279724,792.607788 581.521179,793.661072 583.231750,797.375610 
	C584.852539,800.895142 584.457031,804.231812 581.520996,806.910400 
	C579.053467,809.161621 572.857056,808.987061 570.369446,806.576294 
	C567.637451,803.928650 567.525757,800.714233 569.178406,797.453125 
	C569.680908,796.461487 570.638489,795.700500 571.708862,794.638428 
z"/>
<path fill="#000000" opacity="1.000000" stroke="none" 
	d="
M453.515686,846.334351 
	C450.871277,846.875305 449.536957,845.533691 449.275269,843.580688 
	C448.518127,837.929138 449.644043,832.531616 452.142212,827.323547 
	C454.315674,833.528076 456.041565,839.676270 453.515686,846.334351 
z"/>
</svg>